<svg xmlns="http://www.w3.org/2000/svg" width="126" height="97" viewBox="0 0 126 97">
  <path fill="#D8D8D8" fill-rule="evenodd" d="M9.5,0 L116.5,0 C121.746705,0 126,4.25329488 126,9.5 C126,14.7467051 121.746705,19 116.5,19 L9.5,19 C4.25329488,19 0,14.7467051 0,9.5 C0,4.25329488 4.25329488,0 9.5,0 Z M9.5,39 L116.5,39 C121.746705,39 126,43.2532949 126,48.5 C126,53.7467051 121.746705,58 116.5,58 L9.5,58 C4.25329488,58 0,53.7467051 0,48.5 C0,43.2532949 4.25329488,39 9.5,39 Z M9.5,78 L116.5,78 C121.746705,78 126,82.2532949 126,87.5 C126,92.7467051 121.746705,97 116.5,97 L9.5,97 C4.25329488,97 0,92.7467051 0,87.5 C0,82.2532949 4.25329488,78 9.5,78 Z"/>
</svg>
